# Blender v2.93.3 OBJ File: 'axe.blend'
# www.blender.org
mtllib axe.mtl
o Plane
v -0.690055 4.135150 0.021673
v -0.102081 3.547177 0.021673
v -0.690055 2.959203 0.021673
v -0.690055 4.135150 -0.035896
v -0.102081 3.547177 -0.035896
v -0.690055 2.959203 -0.035896
vt 0.000000 0.000000
vt 0.000000 0.000000
vt 0.000000 0.000000
vt 0.000000 0.000000
vt 0.000000 0.000000
vt 0.000000 0.000000
vn 0.0000 0.0000 1.0000
vn -0.0000 -0.0000 -1.0000
vn -1.0000 -0.0000 0.0000
vn 0.7071 -0.7071 0.0000
vn 0.7071 0.7071 0.0000
usemtl None
s off
f 2/1/1 1/2/1 3/3/1
f 5/4/2 6/5/2 4/6/2
f 3/3/3 1/2/3 4/6/3 6/5/3
f 2/1/4 3/3/4 6/5/4 5/4/4
f 1/2/5 2/1/5 5/4/5 4/6/5
o Circle
v -0.000000 0.000000 -0.105218
v -0.020527 0.000000 -0.103196
v -0.040265 0.000000 -0.097208
v -0.058456 0.000000 -0.087485
v -0.074400 0.000000 -0.074400
v -0.087485 0.000000 -0.058456
v -0.097208 0.000000 -0.040265
v -0.103196 0.000000 -0.020527
v -0.105218 0.000000 0.000000
v -0.103196 0.000000 0.020527
v -0.097208 0.000000 0.040265
v -0.087485 0.000000 0.058456
v -0.074400 0.000000 0.074400
v -0.058456 0.000000 0.087485
v -0.040265 0.000000 0.097208
v -0.020527 0.000000 0.103196
v -0.000000 0.000000 0.105218
v 0.020527 0.000000 0.103196
v 0.040265 0.000000 0.097208
v 0.058456 0.000000 0.087485
v 0.074400 0.000000 0.074400
v 0.087485 0.000000 0.058456
v 0.097208 0.000000 0.040265
v 0.103196 0.000000 0.020527
v 0.105218 0.000000 0.000000
v 0.103196 0.000000 -0.020527
v 0.097208 0.000000 -0.040265
v 0.087485 0.000000 -0.058456
v 0.074400 0.000000 -0.074400
v 0.058456 0.000000 -0.087485
v 0.040265 0.000000 -0.097208
v 0.020527 0.000000 -0.103196
v -0.020527 3.732860 -0.103196
v -0.000000 3.732860 -0.105218
v -0.040265 3.732860 -0.097208
v -0.058456 3.732860 -0.087485
v -0.074400 3.732860 -0.074400
v -0.087485 3.732860 -0.058456
v -0.097208 3.732860 -0.040265
v -0.103196 3.732860 -0.020527
v -0.105218 3.732860 0.000000
v -0.103196 3.732860 0.020527
v -0.097208 3.732860 0.040265
v -0.087485 3.732860 0.058456
v -0.074400 3.732860 0.074400
v -0.058456 3.732860 0.087485
v -0.040265 3.732860 0.097208
v -0.020527 3.732860 0.103196
v -0.000000 3.732860 0.105218
v 0.020527 3.732860 0.103196
v 0.040265 3.732860 0.097208
v 0.058456 3.732860 0.087485
v 0.074400 3.732860 0.074400
v 0.087485 3.732860 0.058456
v 0.097208 3.732860 0.040265
v 0.103196 3.732860 0.020527
v 0.105218 3.732860 0.000000
v 0.103196 3.732860 -0.020527
v 0.097208 3.732860 -0.040265
v 0.087485 3.732860 -0.058456
v 0.074400 3.732860 -0.074400
v 0.058456 3.732860 -0.087485
v 0.040265 3.732860 -0.097208
v 0.020527 3.732860 -0.103196
vt 0.000000 0.000000
vt 0.000000 0.000000
vt 0.000000 0.000000
vt 0.000000 0.000000
vt 0.000000 0.000000
vt 0.000000 0.000000
vt 0.000000 0.000000
vt 0.000000 0.000000
vt 0.000000 0.000000
vt 0.000000 0.000000
vt 0.000000 0.000000
vt 0.000000 0.000000
vt 0.000000 0.000000
vt 0.000000 0.000000
vt 0.000000 0.000000
vt 0.000000 0.000000
vt 0.000000 0.000000
vt 0.000000 0.000000
vt 0.000000 0.000000
vt 0.000000 0.000000
vt 0.000000 0.000000
vt 0.000000 0.000000
vt 0.000000 0.000000
vt 0.000000 0.000000
vt 0.000000 0.000000
vt 0.000000 0.000000
vt 0.000000 0.000000
vt 0.000000 0.000000
vt 0.000000 0.000000
vt 0.000000 0.000000
vt 0.000000 0.000000
vt 0.000000 0.000000
vt 0.000000 0.000000
vt 0.000000 0.000000
vt 0.000000 0.000000
vt 0.000000 0.000000
vt 0.000000 0.000000
vt 0.000000 0.000000
vt 0.000000 0.000000
vt 0.000000 0.000000
vt 0.000000 0.000000
vt 0.000000 0.000000
vt 0.000000 0.000000
vt 0.000000 0.000000
vt 0.000000 0.000000
vt 0.000000 0.000000
vt 0.000000 0.000000
vt 0.000000 0.000000
vt 0.000000 0.000000
vt 0.000000 0.000000
vt 0.000000 0.000000
vt 0.000000 0.000000
vt 0.000000 0.000000
vt 0.000000 0.000000
vt 0.000000 0.000000
vt 0.000000 0.000000
vt 0.000000 0.000000
vt 0.000000 0.000000
vt 0.000000 0.000000
vt 0.000000 0.000000
vt 0.000000 0.000000
vt 0.000000 0.000000
vt 0.000000 0.000000
vt 0.000000 0.000000
vn 0.0000 -1.0000 0.0000
vn 0.0000 1.0000 0.0000
vn 0.9952 0.0000 0.0980
vn -0.8819 0.0000 0.4714
vn 0.9952 0.0000 -0.0980
vn -0.7730 0.0000 0.6344
vn 0.9569 0.0000 -0.2903
vn -0.6344 0.0000 0.7730
vn 0.8819 0.0000 -0.4714
vn -0.4714 0.0000 0.8819
vn -0.0980 0.0000 -0.9952
vn 0.7730 0.0000 -0.6344
vn -0.2903 0.0000 0.9569
vn -0.2903 0.0000 -0.9569
vn 0.6344 0.0000 -0.7730
vn -0.0980 0.0000 0.9952
vn -0.4714 0.0000 -0.8819
vn 0.4714 0.0000 -0.8819
vn 0.0980 0.0000 0.9952
vn -0.6344 0.0000 -0.7730
vn 0.2903 0.0000 -0.9569
vn 0.2903 0.0000 0.9569
vn -0.7730 0.0000 -0.6344
vn 0.0980 0.0000 -0.9952
vn 0.4714 0.0000 0.8819
vn -0.8819 0.0000 -0.4714
vn 0.6344 0.0000 0.7730
vn -0.9569 0.0000 -0.2903
vn 0.7730 0.0000 0.6344
vn -0.9952 0.0000 -0.0980
vn 0.8819 0.0000 0.4714
vn -0.9952 0.0000 0.0980
vn 0.9569 0.0000 0.2903
vn -0.9569 0.0000 0.2903
usemtl None
s off
f 8/7/6 7/8/6 38/9/6 37/10/6 36/11/6 35/12/6 34/13/6 33/14/6 32/15/6 31/16/6 30/17/6 29/18/6 28/19/6 27/20/6 26/21/6 25/22/6 24/23/6 23/24/6 22/25/6 21/26/6 20/27/6 19/28/6 18/29/6 17/30/6 16/31/6 15/32/6 14/33/6 13/34/6 12/35/6 11/36/6 10/37/6 9/38/6
f 39/39/7 41/40/7 42/41/7 43/42/7 44/43/7 45/44/7 46/45/7 47/46/7 48/47/7 49/48/7 50/49/7 51/50/7 52/51/7 53/52/7 54/53/7 55/54/7 56/55/7 57/56/7 58/57/7 59/58/7 60/59/7 61/60/7 62/61/7 63/62/7 64/63/7 65/64/7 66/65/7 67/66/7 68/67/7 69/68/7 70/69/7 40/70/7
f 30/17/8 31/16/8 63/62/8 62/61/8
f 17/30/9 18/29/9 50/49/9 49/48/9
f 31/16/10 32/15/10 64/63/10 63/62/10
f 18/29/11 19/28/11 51/50/11 50/49/11
f 32/15/12 33/14/12 65/64/12 64/63/12
f 19/28/13 20/27/13 52/51/13 51/50/13
f 33/14/14 34/13/14 66/65/14 65/64/14
f 20/27/15 21/26/15 53/52/15 52/51/15
f 7/8/16 8/7/16 39/39/16 40/70/16
f 34/13/17 35/12/17 67/66/17 66/65/17
f 21/26/18 22/25/18 54/53/18 53/52/18
f 8/7/19 9/38/19 41/40/19 39/39/19
f 35/12/20 36/11/20 68/67/20 67/66/20
f 22/25/21 23/24/21 55/54/21 54/53/21
f 9/38/22 10/37/22 42/41/22 41/40/22
f 36/11/23 37/10/23 69/68/23 68/67/23
f 23/24/24 24/23/24 56/55/24 55/54/24
f 10/37/25 11/36/25 43/42/25 42/41/25
f 37/10/26 38/9/26 70/69/26 69/68/26
f 24/23/27 25/22/27 57/56/27 56/55/27
f 11/36/28 12/35/28 44/43/28 43/42/28
f 38/9/29 7/8/29 40/70/29 70/69/29
f 25/22/30 26/21/30 58/57/30 57/56/30
f 12/35/31 13/34/31 45/44/31 44/43/31
f 26/21/32 27/20/32 59/58/32 58/57/32
f 13/34/33 14/33/33 46/45/33 45/44/33
f 27/20/34 28/19/34 60/59/34 59/58/34
f 14/33/35 15/32/35 47/46/35 46/45/35
f 28/19/36 29/18/36 61/60/36 60/59/36
f 15/32/37 16/31/37 48/47/37 47/46/37
f 29/18/38 30/17/38 62/61/38 61/60/38
f 16/31/39 17/30/39 49/48/39 48/47/39
o Plane.001
v 1.642285 4.352028 -0.055623
v -0.038359 3.473518 -0.055622
v 1.642285 2.595008 -0.055623
v 1.642285 4.352028 0.030393
v -0.038359 3.473518 0.030393
v 1.642285 2.595008 0.030393
vt 0.000000 0.000000
vt 0.000000 0.000000
vt 0.000000 0.000000
vt 0.000000 0.000000
vt 0.000000 0.000000
vt 0.000000 0.000000
vn -0.0000 0.0000 -1.0000
vn 0.0000 -0.0000 1.0000
vn 1.0000 -0.0000 0.0000
vn -0.4633 -0.8862 0.0000
vn -0.4633 0.8862 0.0000
usemtl None
s off
f 72/71/40 71/72/40 73/73/40
f 75/74/41 76/75/41 74/76/41
f 73/73/42 71/72/42 74/76/42 76/75/42
f 72/71/43 73/73/43 76/75/43 75/74/43
f 71/72/44 72/71/44 75/74/44 74/76/44
