# Blender v2.93.3 OBJ File: 'box.blend'
# www.blender.org
mtllib box.mtl
o Cube_Cube.001
v -0.760254 -1.000000 0.760254
v -0.760254 -0.760254 1.000000
v -1.000000 -0.760254 0.760254
v -0.760254 0.760254 1.000000
v -0.760254 1.000000 0.760254
v -1.000000 0.760254 0.760254
v -0.760254 -1.000000 -0.760254
v -1.000000 -0.760254 -0.760254
v -0.760254 -0.760254 -1.000000
v -0.760254 1.000000 -0.760254
v -0.760254 0.760254 -1.000000
v -1.000000 0.760254 -0.760254
v 0.760254 -1.000000 0.760254
v 1.000000 -0.760254 0.760254
v 0.760254 -0.760254 1.000000
v 0.760254 1.000000 0.760254
v 0.760254 0.760254 1.000000
v 1.000000 0.760254 0.760254
v 0.760254 -1.000000 -0.760254
v 0.760254 -0.760254 -1.000000
v 1.000000 -0.760254 -0.760254
v 0.760254 1.000000 -0.760254
v 1.000000 0.760254 -0.760254
v 0.760254 0.760254 -1.000000
v -0.674123 -0.886708 -0.674123
v -0.674123 -0.886708 0.674123
v -0.886708 -0.674123 0.674123
v -0.886708 -0.674123 -0.674123
v -0.674123 -0.674123 0.886708
v -0.674123 0.674123 0.886708
v -0.886708 0.674123 0.674123
v -0.674123 0.886708 0.674123
v -0.674123 0.886708 -0.674123
v -0.886708 0.674123 -0.674123
v -0.674123 0.674123 -0.886708
v -0.674123 -0.674123 -0.886708
v 0.674123 -0.886708 -0.674123
v 0.674123 -0.674123 -0.886708
v 0.674123 0.886708 -0.674123
v 0.674123 0.674123 -0.886708
v 0.886708 0.674123 -0.674123
v 0.886708 -0.674123 -0.674123
v 0.674123 -0.886708 0.674123
v 0.886708 -0.674123 0.674123
v 0.674123 0.886708 0.674123
v 0.886708 0.674123 0.674123
v 0.674123 0.674123 0.886708
v 0.674123 -0.674123 0.886708
vt 0.154968 0.750000
vt 0.345032 0.750000
vt 0.345032 0.750000
vt 0.154968 0.750000
vt 0.404968 0.279968
vt 0.595032 0.279968
vt 0.595032 0.279968
vt 0.404968 0.279968
vt 0.595032 0.470032
vt 0.404968 0.470032
vt 0.404968 0.470032
vt 0.595032 0.470032
vt 0.345032 0.720032
vt 0.154968 0.720032
vt 0.154968 0.720032
vt 0.345032 0.720032
vt 0.595032 0.029968
vt 0.595032 0.220032
vt 0.595032 0.220032
vt 0.595032 0.029968
vt 0.125000 0.720032
vt 0.595032 0.970032
vt 0.625000 0.970032
vt 0.595032 1.000000
vt 0.154968 0.529968
vt 0.125000 0.529968
vt 0.154968 0.500000
vt 0.625000 0.279968
vt 0.625000 0.279968
vt 0.595032 0.250000
vt 0.375000 0.720032
vt 0.625000 0.779968
vt 0.625000 0.779968
vt 0.595032 0.750000
vt 0.345032 0.529968
vt 0.345032 0.500000
vt 0.375000 0.529968
vt 0.625000 0.529968
vt 0.625000 0.529968
vt 0.595032 0.500000
vt 0.404968 0.000000
vt 0.595032 0.000000
vt 0.404968 0.029968
vt 0.625000 0.029968
vt 0.625000 0.220032
vt 0.404968 0.220032
vt 0.625000 0.470032
vt 0.595032 0.529968
vt 0.404968 0.529968
vt 0.404968 0.720032
vt 0.654968 0.529968
vt 0.654968 0.720032
vt 0.595032 0.720032
vt 0.595032 0.779968
vt 0.404968 0.779968
vt 0.595032 0.529968
vt 0.404968 0.529968
vt 0.404968 0.779968
vt 0.595032 0.779968
vt 0.595032 0.970032
vt 0.404968 0.970032
vt 0.595032 0.720032
vt 0.404968 0.720032
vt 0.654968 0.529968
vt 0.845032 0.529968
vt 0.845032 0.720032
vt 0.654968 0.720032
vt 0.404968 0.029968
vt 0.404968 0.220032
vt 0.154968 0.529968
vt 0.345032 0.529968
vt 0.625000 0.779968
vt 0.625000 0.970032
vt 0.125000 0.720032
vt 0.125000 0.529968
vt 0.154968 0.500000
vt 0.345032 0.500000
vt 0.404968 0.000000
vt 0.595032 0.000000
vt 0.625000 0.279968
vt 0.625000 0.470032
vt 0.625000 0.029968
vt 0.625000 0.220032
vn 0.0000 0.7961 0.6052
vn 0.7961 0.0000 -0.6052
vn -0.7961 0.0000 -0.6052
vn 0.0000 -0.6052 -0.7961
vn -0.6052 -0.7961 0.0000
vn -0.5774 -0.5774 0.5774
vn -0.5774 0.5774 0.5774
vn -0.5774 -0.5774 -0.5774
vn -0.5774 0.5774 -0.5774
vn 0.5774 -0.5774 0.5774
vn 0.5774 0.5774 0.5774
vn 0.5774 -0.5774 -0.5774
vn 0.5774 0.5774 -0.5774
vn -0.7071 -0.7071 0.0000
vn -0.7071 0.0000 0.7071
vn -0.7071 0.7071 0.0000
vn -0.7071 0.0000 -0.7071
vn 0.0000 -0.7071 -0.7071
vn 0.0000 0.7071 -0.7071
vn 0.7071 0.0000 -0.7071
vn 0.7071 -0.7071 0.0000
vn 0.7071 0.7071 0.0000
vn 0.7071 0.0000 0.7071
vn 0.0000 -0.7071 0.7071
vn 0.0000 0.7071 0.7071
vn 0.6052 0.0000 0.7961
vn 0.0000 0.0000 1.0000
vn 1.0000 0.0000 0.0000
vn 0.0000 1.0000 0.0000
vn -1.0000 0.0000 0.0000
vn 0.0000 0.0000 -1.0000
vn 0.0000 -1.0000 0.0000
vn -0.7961 -0.6052 0.0000
vn -0.6052 0.0000 0.7961
vn 0.0000 0.6052 -0.7961
vn 0.7961 -0.6052 0.0000
vn 0.6052 0.7961 0.0000
vn 0.0000 -0.6052 0.7961
vn 0.0000 -0.7961 0.6052
vn -0.6052 0.7961 0.0000
vn -0.7961 0.6052 0.0000
vn 0.0000 0.7961 -0.6052
vn 0.7961 0.0000 0.6052
vn 0.6052 -0.7961 0.0000
vn 0.0000 0.6052 0.7961
vn -0.6052 0.0000 -0.7961
vn -0.7961 0.0000 0.6052
vn 0.0000 -0.7961 -0.6052
vn 0.7961 0.6052 0.0000
vn 0.6052 0.0000 -0.7961
usemtl None
s off
f 2/1/1 15/2/1 48/3/1 29/4/1
f 9/5/2 11/6/2 35/7/2 36/8/2
f 24/9/3 20/10/3 38/11/3 40/12/3
f 13/13/4 1/14/4 26/15/4 43/16/4
f 6/17/5 12/18/5 34/19/5 31/20/5
f 1/14/6 2/1/6 3/21/6
f 4/22/7 5/23/7 6/24/7
f 7/25/8 8/26/8 9/27/8
f 10/28/9 11/29/9 12/30/9
f 13/13/10 14/31/10 15/2/10
f 16/32/11 17/33/11 18/34/11
f 19/35/12 20/36/12 21/37/12
f 22/38/13 23/39/13 24/40/13
f 7/25/14 1/14/14 3/21/14 8/26/14
f 2/41/15 4/42/15 6/17/15 3/43/15
f 5/44/16 10/45/16 12/18/16 6/17/16
f 11/6/17 9/5/17 8/46/17 12/18/17
f 19/35/18 7/25/18 9/27/18 20/36/18
f 10/28/19 22/47/19 24/9/19 11/6/19
f 23/48/20 21/49/20 20/10/20 24/9/20
f 13/13/21 19/35/21 21/49/21 14/50/21
f 22/51/22 16/52/22 18/53/22 23/48/22
f 17/54/23 15/55/23 14/50/23 18/53/23
f 1/14/24 13/13/24 15/2/24 2/1/24
f 16/32/25 5/23/25 4/22/25 17/54/25
f 21/49/26 23/48/26 41/56/26 42/57/26
f 48/58/27 47/59/27 30/60/27 29/61/27
f 42/57/28 41/56/28 46/62/28 44/63/28
f 39/64/29 33/65/29 32/66/29 45/67/29
f 27/68/30 31/20/30 34/19/30 28/69/30
f 36/8/31 35/7/31 40/12/31 38/11/31
f 25/70/32 37/71/32 43/16/32 26/15/32
f 19/35/33 13/13/33 43/16/33 37/71/33
f 12/18/34 8/46/34 28/69/34 34/19/34
f 5/23/35 16/32/35 45/72/35 32/73/35
f 1/14/36 7/25/36 25/70/36 26/15/36
f 14/50/37 21/49/37 42/57/37 44/63/37
f 7/25/38 19/35/38 37/71/38 25/70/38
f 17/54/39 4/22/39 30/60/39 47/59/39
f 8/26/40 3/21/40 27/74/40 28/75/40
f 16/52/41 22/51/41 39/64/41 45/67/41
f 20/36/42 9/27/42 36/76/42 38/77/42
f 4/42/43 2/41/43 29/78/43 30/79/43
f 23/48/44 18/53/44 46/62/44 41/56/44
f 22/47/45 10/28/45 33/80/45 39/81/45
f 3/43/46 6/17/46 31/20/46 27/68/46
f 15/55/47 17/54/47 47/59/47 48/58/47
f 11/6/48 24/9/48 40/12/48 35/7/48
f 10/45/49 5/44/49 32/82/49 33/83/49
f 18/53/50 14/50/50 44/63/50 46/62/50
